<svg xmlns="http://www.w3.org/2000/svg" width="1100" height="620" viewBox="0 0 1100 620" role="img" aria-label="Algorithm throughput by string length">
<rect width="1100" height="620" fill="#0f172a" />
<text x="550" y="36" text-anchor="middle" font-family="Arial, Helvetica, sans-serif" font-size="24" font-weight="700" fill="#e5e7eb">Levenshtein benchmark throughput by string length</text>
<text x="550" y="60" text-anchor="middle" font-family="Arial, Helvetica, sans-serif" font-size="13" fill="#cbd5e1">Y axis = mean ops/sec (log10), X axis = string length (log2)</text>
<line x1="100" y1="509.8602477392728" x2="920" y2="509.8602477392728" stroke="#334155" stroke-width="1" opacity="0.6" />
<text x="88" y="513.8602477392728" text-anchor="end" font-family="Arial, Helvetica, sans-serif" font-size="12" fill="#94a3b8">1.0k</text>
<line x1="100" y1="427.94889615596844" x2="920" y2="427.94889615596844" stroke="#334155" stroke-width="1" opacity="0.6" />
<text x="88" y="431.94889615596844" text-anchor="end" font-family="Arial, Helvetica, sans-serif" font-size="12" fill="#94a3b8">10k</text>
<line x1="100" y1="346.03754457266416" x2="920" y2="346.03754457266416" stroke="#334155" stroke-width="1" opacity="0.6" />
<text x="88" y="350.03754457266416" text-anchor="end" font-family="Arial, Helvetica, sans-serif" font-size="12" fill="#94a3b8">100k</text>
<line x1="100" y1="264.1261929893598" x2="920" y2="264.1261929893598" stroke="#334155" stroke-width="1" opacity="0.6" />
<text x="88" y="268.1261929893598" text-anchor="end" font-family="Arial, Helvetica, sans-serif" font-size="12" fill="#94a3b8">1.0M</text>
<line x1="100" y1="182.21484140605554" x2="920" y2="182.21484140605554" stroke="#334155" stroke-width="1" opacity="0.6" />
<text x="88" y="186.21484140605554" text-anchor="end" font-family="Arial, Helvetica, sans-serif" font-size="12" fill="#94a3b8">10M</text>
<line x1="100" y1="100.3034898227512" x2="920" y2="100.3034898227512" stroke="#334155" stroke-width="1" opacity="0.6" />
<text x="88" y="104.3034898227512" text-anchor="end" font-family="Arial, Helvetica, sans-serif" font-size="12" fill="#94a3b8">100M</text>
<line x1="100" y1="80" x2="100" y2="540" stroke="#334155" stroke-width="1" opacity="0.45" />
<text x="100" y="564" text-anchor="middle" font-family="Arial, Helvetica, sans-serif" font-size="12" fill="#94a3b8">1</text>
<line x1="182" y1="80" x2="182" y2="540" stroke="#334155" stroke-width="1" opacity="0.45" />
<text x="182" y="564" text-anchor="middle" font-family="Arial, Helvetica, sans-serif" font-size="12" fill="#94a3b8">2</text>
<line x1="264" y1="80" x2="264" y2="540" stroke="#334155" stroke-width="1" opacity="0.45" />
<text x="264" y="564" text-anchor="middle" font-family="Arial, Helvetica, sans-serif" font-size="12" fill="#94a3b8">4</text>
<line x1="346" y1="80" x2="346" y2="540" stroke="#334155" stroke-width="1" opacity="0.45" />
<text x="346" y="564" text-anchor="middle" font-family="Arial, Helvetica, sans-serif" font-size="12" fill="#94a3b8">8</text>
<line x1="428" y1="80" x2="428" y2="540" stroke="#334155" stroke-width="1" opacity="0.45" />
<text x="428" y="564" text-anchor="middle" font-family="Arial, Helvetica, sans-serif" font-size="12" fill="#94a3b8">16</text>
<line x1="510" y1="80" x2="510" y2="540" stroke="#334155" stroke-width="1" opacity="0.45" />
<text x="510" y="564" text-anchor="middle" font-family="Arial, Helvetica, sans-serif" font-size="12" fill="#94a3b8">32</text>
<line x1="592" y1="80" x2="592" y2="540" stroke="#334155" stroke-width="1" opacity="0.45" />
<text x="592" y="564" text-anchor="middle" font-family="Arial, Helvetica, sans-serif" font-size="12" fill="#94a3b8">64</text>
<line x1="674" y1="80" x2="674" y2="540" stroke="#334155" stroke-width="1" opacity="0.45" />
<text x="674" y="564" text-anchor="middle" font-family="Arial, Helvetica, sans-serif" font-size="12" fill="#94a3b8">128</text>
<line x1="756" y1="80" x2="756" y2="540" stroke="#334155" stroke-width="1" opacity="0.45" />
<text x="756" y="564" text-anchor="middle" font-family="Arial, Helvetica, sans-serif" font-size="12" fill="#94a3b8">256</text>
<line x1="838" y1="80" x2="838" y2="540" stroke="#334155" stroke-width="1" opacity="0.45" />
<text x="838" y="564" text-anchor="middle" font-family="Arial, Helvetica, sans-serif" font-size="12" fill="#94a3b8">512</text>
<line x1="920" y1="80" x2="920" y2="540" stroke="#334155" stroke-width="1" opacity="0.45" />
<text x="920" y="564" text-anchor="middle" font-family="Arial, Helvetica, sans-serif" font-size="12" fill="#94a3b8">1024</text>
<line x1="100" y1="80" x2="100" y2="540" stroke="#94a3b8" stroke-width="1.5" />
<line x1="100" y1="540" x2="920" y2="540" stroke="#94a3b8" stroke-width="1.5" />
<path d="M 100.00 80.00 L 182.00 105.13 L 264.00 128.45 L 346.00 143.47 L 428.00 177.04 L 510.00 197.22 L 592.00 247.81 L 674.00 284.93 L 756.00 335.07 L 838.00 384.27 L 920.00 427.18" fill="none" stroke="#38bdf8" stroke-width="3" stroke-linecap="round" stroke-linejoin="round" opacity="0.95" />
<circle cx="100.00" cy="80.00" r="4.5" fill="#38bdf8" stroke="#0f172a" stroke-width="1.5"><title>lightning-levenshtein-v2 | N=1 | mean=176958530.40 ops/sec</title></circle>
<circle cx="182.00" cy="105.13" r="4.5" fill="#38bdf8" stroke="#0f172a" stroke-width="1.5"><title>lightning-levenshtein-v2 | N=2 | mean=87309668.79 ops/sec</title></circle>
<circle cx="264.00" cy="128.45" r="4.5" fill="#38bdf8" stroke="#0f172a" stroke-width="1.5"><title>lightning-levenshtein-v2 | N=4 | mean=45325268.51 ops/sec</title></circle>
<circle cx="346.00" cy="143.47" r="4.5" fill="#38bdf8" stroke="#0f172a" stroke-width="1.5"><title>lightning-levenshtein-v2 | N=8 | mean=29718514.84 ops/sec</title></circle>
<circle cx="428.00" cy="177.04" r="4.5" fill="#38bdf8" stroke="#0f172a" stroke-width="1.5"><title>lightning-levenshtein-v2 | N=16 | mean=11564705.60 ops/sec</title></circle>
<circle cx="510.00" cy="197.22" r="4.5" fill="#38bdf8" stroke="#0f172a" stroke-width="1.5"><title>lightning-levenshtein-v2 | N=32 | mean=6558537.20 ops/sec</title></circle>
<circle cx="592.00" cy="247.81" r="4.5" fill="#38bdf8" stroke="#0f172a" stroke-width="1.5"><title>lightning-levenshtein-v2 | N=64 | mean=1581837.84 ops/sec</title></circle>
<circle cx="674.00" cy="284.93" r="4.5" fill="#38bdf8" stroke="#0f172a" stroke-width="1.5"><title>lightning-levenshtein-v2 | N=128 | mean=557283.67 ops/sec</title></circle>
<circle cx="756.00" cy="335.07" r="4.5" fill="#38bdf8" stroke="#0f172a" stroke-width="1.5"><title>lightning-levenshtein-v2 | N=256 | mean=136111.61 ops/sec</title></circle>
<circle cx="838.00" cy="384.27" r="4.5" fill="#38bdf8" stroke="#0f172a" stroke-width="1.5"><title>lightning-levenshtein-v2 | N=512 | mean=34142.26 ops/sec</title></circle>
<circle cx="920.00" cy="427.18" r="4.5" fill="#38bdf8" stroke="#0f172a" stroke-width="1.5"><title>lightning-levenshtein-v2 | N=1024 | mean=10218.58 ops/sec</title></circle>
<path d="M 100.00 104.13 L 182.00 118.71 L 264.00 132.11 L 346.00 149.26 L 428.00 187.16 L 510.00 206.31 L 592.00 257.33 L 674.00 295.00 L 756.00 338.68 L 838.00 385.21 L 920.00 433.40" fill="none" stroke="#22c55e" stroke-width="3" stroke-linecap="round" stroke-linejoin="round" opacity="0.95" />
<circle cx="100.00" cy="104.13" r="4.5" fill="#22c55e" stroke="#0f172a" stroke-width="1.5"><title>lightning-levenshtein-v1 | N=1 | mean=89792450.40 ops/sec</title></circle>
<circle cx="182.00" cy="118.71" r="4.5" fill="#22c55e" stroke="#0f172a" stroke-width="1.5"><title>lightning-levenshtein-v1 | N=2 | mean=59604977.78 ops/sec</title></circle>
<circle cx="264.00" cy="132.11" r="4.5" fill="#22c55e" stroke="#0f172a" stroke-width="1.5"><title>lightning-levenshtein-v1 | N=4 | mean=40893209.42 ops/sec</title></circle>
<circle cx="346.00" cy="149.26" r="4.5" fill="#22c55e" stroke="#0f172a" stroke-width="1.5"><title>lightning-levenshtein-v1 | N=8 | mean=25255956.97 ops/sec</title></circle>
<circle cx="428.00" cy="187.16" r="4.5" fill="#22c55e" stroke="#0f172a" stroke-width="1.5"><title>lightning-levenshtein-v1 | N=16 | mean=8702209.64 ops/sec</title></circle>
<circle cx="510.00" cy="206.31" r="4.5" fill="#22c55e" stroke="#0f172a" stroke-width="1.5"><title>lightning-levenshtein-v1 | N=32 | mean=5079837.53 ops/sec</title></circle>
<circle cx="592.00" cy="257.33" r="4.5" fill="#22c55e" stroke="#0f172a" stroke-width="1.5"><title>lightning-levenshtein-v1 | N=64 | mean=1210530.51 ops/sec</title></circle>
<circle cx="674.00" cy="295.00" r="4.5" fill="#22c55e" stroke="#0f172a" stroke-width="1.5"><title>lightning-levenshtein-v1 | N=128 | mean=419799.89 ops/sec</title></circle>
<circle cx="756.00" cy="338.68" r="4.5" fill="#22c55e" stroke="#0f172a" stroke-width="1.5"><title>lightning-levenshtein-v1 | N=256 | mean=122984.99 ops/sec</title></circle>
<circle cx="838.00" cy="385.21" r="4.5" fill="#22c55e" stroke="#0f172a" stroke-width="1.5"><title>lightning-levenshtein-v1 | N=512 | mean=33245.43 ops/sec</title></circle>
<circle cx="920.00" cy="433.40" r="4.5" fill="#22c55e" stroke="#0f172a" stroke-width="1.5"><title>lightning-levenshtein-v1 | N=1024 | mean=8579.76 ops/sec</title></circle>
<path d="M 100.00 102.12 L 182.00 111.08 L 264.00 130.05 L 346.00 152.76 L 428.00 189.83 L 510.00 211.39 L 592.00 263.27 L 674.00 308.39 L 756.00 355.08 L 838.00 404.62 L 920.00 452.84" fill="none" stroke="#f59e0b" stroke-width="3" stroke-linecap="round" stroke-linejoin="round" opacity="0.95" />
<circle cx="100.00" cy="102.12" r="4.5" fill="#f59e0b" stroke="#0f172a" stroke-width="1.5"><title>fastest-levenshtein | N=1 | mean=95024701.77 ops/sec</title></circle>
<circle cx="182.00" cy="111.08" r="4.5" fill="#f59e0b" stroke="#0f172a" stroke-width="1.5"><title>fastest-levenshtein | N=2 | mean=73865489.03 ops/sec</title></circle>
<circle cx="264.00" cy="130.05" r="4.5" fill="#f59e0b" stroke="#0f172a" stroke-width="1.5"><title>fastest-levenshtein | N=4 | mean=43339546.38 ops/sec</title></circle>
<circle cx="346.00" cy="152.76" r="4.5" fill="#f59e0b" stroke="#0f172a" stroke-width="1.5"><title>fastest-levenshtein | N=8 | mean=22887837.68 ops/sec</title></circle>
<circle cx="428.00" cy="189.83" r="4.5" fill="#f59e0b" stroke="#0f172a" stroke-width="1.5"><title>fastest-levenshtein | N=16 | mean=8073350.37 ops/sec</title></circle>
<circle cx="510.00" cy="211.39" r="4.5" fill="#f59e0b" stroke="#0f172a" stroke-width="1.5"><title>fastest-levenshtein | N=32 | mean=4404292.19 ops/sec</title></circle>
<circle cx="592.00" cy="263.27" r="4.5" fill="#f59e0b" stroke="#0f172a" stroke-width="1.5"><title>fastest-levenshtein | N=64 | mean=1024477.96 ops/sec</title></circle>
<circle cx="674.00" cy="308.39" r="4.5" fill="#f59e0b" stroke="#0f172a" stroke-width="1.5"><title>fastest-levenshtein | N=128 | mean=288159.31 ops/sec</title></circle>
<circle cx="756.00" cy="355.08" r="4.5" fill="#f59e0b" stroke="#0f172a" stroke-width="1.5"><title>fastest-levenshtein | N=256 | mean=77550.41 ops/sec</title></circle>
<circle cx="838.00" cy="404.62" r="4.5" fill="#f59e0b" stroke="#0f172a" stroke-width="1.5"><title>fastest-levenshtein | N=512 | mean=19268.79 ops/sec</title></circle>
<circle cx="920.00" cy="452.84" r="4.5" fill="#f59e0b" stroke="#0f172a" stroke-width="1.5"><title>fastest-levenshtein | N=1024 | mean=4967.54 ops/sec</title></circle>
<path d="M 100.00 100.16 L 182.00 105.28 L 264.00 153.25 L 346.00 178.86 L 428.00 222.46 L 510.00 267.25 L 592.00 315.08 L 674.00 363.78 L 756.00 411.75 L 838.00 460.42 L 920.00 509.70" fill="none" stroke="#f43f5e" stroke-width="3" stroke-linecap="round" stroke-linejoin="round" opacity="0.95" />
<circle cx="100.00" cy="100.16" r="4.5" fill="#f43f5e" stroke="#0f172a" stroke-width="1.5"><title>js-levenshtein | N=1 | mean=100407121.11 ops/sec</title></circle>
<circle cx="182.00" cy="105.28" r="4.5" fill="#f43f5e" stroke="#0f172a" stroke-width="1.5"><title>js-levenshtein | N=2 | mean=86948386.42 ops/sec</title></circle>
<circle cx="264.00" cy="153.25" r="4.5" fill="#f43f5e" stroke="#0f172a" stroke-width="1.5"><title>js-levenshtein | N=4 | mean=22571517.89 ops/sec</title></circle>
<circle cx="346.00" cy="178.86" r="4.5" fill="#f43f5e" stroke="#0f172a" stroke-width="1.5"><title>js-levenshtein | N=8 | mean=10990386.35 ops/sec</title></circle>
<circle cx="428.00" cy="222.46" r="4.5" fill="#f43f5e" stroke="#0f172a" stroke-width="1.5"><title>js-levenshtein | N=16 | mean=3226062.09 ops/sec</title></circle>
<circle cx="510.00" cy="267.25" r="4.5" fill="#f43f5e" stroke="#0f172a" stroke-width="1.5"><title>js-levenshtein | N=32 | mean=915940.34 ops/sec</title></circle>
<circle cx="592.00" cy="315.08" r="4.5" fill="#f43f5e" stroke="#0f172a" stroke-width="1.5"><title>js-levenshtein | N=64 | mean=238773.66 ops/sec</title></circle>
<circle cx="674.00" cy="363.78" r="4.5" fill="#f43f5e" stroke="#0f172a" stroke-width="1.5"><title>js-levenshtein | N=128 | mean=60727.16 ops/sec</title></circle>
<circle cx="756.00" cy="411.75" r="4.5" fill="#f43f5e" stroke="#0f172a" stroke-width="1.5"><title>js-levenshtein | N=256 | mean=15768.63 ops/sec</title></circle>
<circle cx="838.00" cy="460.42" r="4.5" fill="#f43f5e" stroke="#0f172a" stroke-width="1.5"><title>js-levenshtein | N=512 | mean=4013.91 ops/sec</title></circle>
<circle cx="920.00" cy="509.70" r="4.5" fill="#f43f5e" stroke="#0f172a" stroke-width="1.5"><title>js-levenshtein | N=1024 | mean=1004.45 ops/sec</title></circle>
<path d="M 100.00 111.08 L 182.00 130.25 L 264.00 154.81 L 346.00 190.09 L 428.00 243.65 L 510.00 295.34 L 592.00 341.54 L 674.00 389.91 L 756.00 437.84 L 838.00 486.88 L 920.00 535.97" fill="none" stroke="#a78bfa" stroke-width="3" stroke-linecap="round" stroke-linejoin="round" opacity="0.95" />
<circle cx="100.00" cy="111.08" r="4.5" fill="#a78bfa" stroke="#0f172a" stroke-width="1.5"><title>leven | N=1 | mean=73872405.69 ops/sec</title></circle>
<circle cx="182.00" cy="130.25" r="4.5" fill="#a78bfa" stroke="#0f172a" stroke-width="1.5"><title>leven | N=2 | mean=43095216.15 ops/sec</title></circle>
<circle cx="264.00" cy="154.81" r="4.5" fill="#a78bfa" stroke="#0f172a" stroke-width="1.5"><title>leven | N=4 | mean=21605869.58 ops/sec</title></circle>
<circle cx="346.00" cy="190.09" r="4.5" fill="#a78bfa" stroke="#0f172a" stroke-width="1.5"><title>leven | N=8 | mean=8013531.86 ops/sec</title></circle>
<circle cx="428.00" cy="243.65" r="4.5" fill="#a78bfa" stroke="#0f172a" stroke-width="1.5"><title>leven | N=16 | mean=1778166.23 ops/sec</title></circle>
<circle cx="510.00" cy="295.34" r="4.5" fill="#a78bfa" stroke="#0f172a" stroke-width="1.5"><title>leven | N=32 | mean=415840.27 ops/sec</title></circle>
<circle cx="592.00" cy="341.54" r="4.5" fill="#a78bfa" stroke="#0f172a" stroke-width="1.5"><title>leven | N=64 | mean=113475.86 ops/sec</title></circle>
<circle cx="674.00" cy="389.91" r="4.5" fill="#a78bfa" stroke="#0f172a" stroke-width="1.5"><title>leven | N=128 | mean=29130.93 ops/sec</title></circle>
<circle cx="756.00" cy="437.84" r="4.5" fill="#a78bfa" stroke="#0f172a" stroke-width="1.5"><title>leven | N=256 | mean=7572.85 ops/sec</title></circle>
<circle cx="838.00" cy="486.88" r="4.5" fill="#a78bfa" stroke="#0f172a" stroke-width="1.5"><title>leven | N=512 | mean=1908.11 ops/sec</title></circle>
<circle cx="920.00" cy="535.97" r="4.5" fill="#a78bfa" stroke="#0f172a" stroke-width="1.5"><title>leven | N=1024 | mean=479.98 ops/sec</title></circle>
<path d="M 100.00 95.01 L 182.00 120.72 L 264.00 150.91 L 346.00 188.55 L 428.00 243.69 L 510.00 297.19 L 592.00 344.32 L 674.00 392.69 L 756.00 441.22 L 838.00 489.96 L 920.00 540.00" fill="none" stroke="#14b8a6" stroke-width="3" stroke-linecap="round" stroke-linejoin="round" opacity="0.95" />
<circle cx="100.00" cy="95.01" r="4.5" fill="#14b8a6" stroke="#0f172a" stroke-width="1.5"><title>levenshtein-edit-distance | N=1 | mean=116046403.88 ops/sec</title></circle>
<circle cx="182.00" cy="120.72" r="4.5" fill="#14b8a6" stroke="#0f172a" stroke-width="1.5"><title>levenshtein-edit-distance | N=2 | mean=56324647.06 ops/sec</title></circle>
<circle cx="264.00" cy="150.91" r="4.5" fill="#14b8a6" stroke="#0f172a" stroke-width="1.5"><title>levenshtein-edit-distance | N=4 | mean=24109205.78 ops/sec</title></circle>
<circle cx="346.00" cy="188.55" r="4.5" fill="#14b8a6" stroke="#0f172a" stroke-width="1.5"><title>levenshtein-edit-distance | N=8 | mean=8368462.98 ops/sec</title></circle>
<circle cx="428.00" cy="243.69" r="4.5" fill="#14b8a6" stroke="#0f172a" stroke-width="1.5"><title>levenshtein-edit-distance | N=16 | mean=1776279.56 ops/sec</title></circle>
<circle cx="510.00" cy="297.19" r="4.5" fill="#14b8a6" stroke="#0f172a" stroke-width="1.5"><title>levenshtein-edit-distance | N=32 | mean=394720.26 ops/sec</title></circle>
<circle cx="592.00" cy="344.32" r="4.5" fill="#14b8a6" stroke="#0f172a" stroke-width="1.5"><title>levenshtein-edit-distance | N=64 | mean=104931.92 ops/sec</title></circle>
<circle cx="674.00" cy="392.69" r="4.5" fill="#14b8a6" stroke="#0f172a" stroke-width="1.5"><title>levenshtein-edit-distance | N=128 | mean=26942.67 ops/sec</title></circle>
<circle cx="756.00" cy="441.22" r="4.5" fill="#14b8a6" stroke="#0f172a" stroke-width="1.5"><title>levenshtein-edit-distance | N=256 | mean=6885.59 ops/sec</title></circle>
<circle cx="838.00" cy="489.96" r="4.5" fill="#14b8a6" stroke="#0f172a" stroke-width="1.5"><title>levenshtein-edit-distance | N=512 | mean=1749.80 ops/sec</title></circle>
<circle cx="920.00" cy="540.00" r="4.5" fill="#14b8a6" stroke="#0f172a" stroke-width="1.5"><title>levenshtein-edit-distance | N=1024 | mean=428.59 ops/sec</title></circle>
<text x="510" y="596" text-anchor="middle" font-family="Arial, Helvetica, sans-serif" font-size="14" fill="#e5e7eb">String length (log2 scale)</text>
<text x="28" y="310" text-anchor="middle" font-family="Arial, Helvetica, sans-serif" font-size="14" fill="#e5e7eb" transform="rotate(-90 28 310)">Mean ops/sec (log10 scale)</text>
<g>
<text x="930" y="76" font-family="Arial, Helvetica, sans-serif" font-size="13" font-weight="700" fill="#e5e7eb">Algorithms</text>
<line x1="930" y1="90" x2="950" y2="90" stroke="#38bdf8" stroke-width="3" stroke-linecap="round" />
<circle cx="940" cy="90" r="4" fill="#38bdf8" stroke="#0f172a" stroke-width="1.2" />
<text x="960" y="94" font-family="Arial, Helvetica, sans-serif" font-size="12" fill="#e5e7eb">lightning-levenshtein-v2</text>
<line x1="930" y1="116" x2="950" y2="116" stroke="#22c55e" stroke-width="3" stroke-linecap="round" />
<circle cx="940" cy="116" r="4" fill="#22c55e" stroke="#0f172a" stroke-width="1.2" />
<text x="960" y="120" font-family="Arial, Helvetica, sans-serif" font-size="12" fill="#e5e7eb">lightning-levenshtein-v1</text>
<line x1="930" y1="142" x2="950" y2="142" stroke="#f59e0b" stroke-width="3" stroke-linecap="round" />
<circle cx="940" cy="142" r="4" fill="#f59e0b" stroke="#0f172a" stroke-width="1.2" />
<text x="960" y="146" font-family="Arial, Helvetica, sans-serif" font-size="12" fill="#e5e7eb">fastest-levenshtein</text>
<line x1="930" y1="168" x2="950" y2="168" stroke="#f43f5e" stroke-width="3" stroke-linecap="round" />
<circle cx="940" cy="168" r="4" fill="#f43f5e" stroke="#0f172a" stroke-width="1.2" />
<text x="960" y="172" font-family="Arial, Helvetica, sans-serif" font-size="12" fill="#e5e7eb">js-levenshtein</text>
<line x1="930" y1="194" x2="950" y2="194" stroke="#a78bfa" stroke-width="3" stroke-linecap="round" />
<circle cx="940" cy="194" r="4" fill="#a78bfa" stroke="#0f172a" stroke-width="1.2" />
<text x="960" y="198" font-family="Arial, Helvetica, sans-serif" font-size="12" fill="#e5e7eb">leven</text>
<line x1="930" y1="220" x2="950" y2="220" stroke="#14b8a6" stroke-width="3" stroke-linecap="round" />
<circle cx="940" cy="220" r="4" fill="#14b8a6" stroke="#0f172a" stroke-width="1.2" />
<text x="960" y="224" font-family="Arial, Helvetica, sans-serif" font-size="12" fill="#e5e7eb">levenshtein-edit-distance</text>
</g>
</svg>